<?xml version="1.0" encoding="UTF-8"?>
<svg width="1200pt" height="1200pt" version="1.1" viewBox="0 0 1200 1200" xmlns="http://www.w3.org/2000/svg">
 <path d="m911.34 1116.5c-5.9531 0-11.953-1.4062-17.438-4.3125l-293.9-154.5-293.9 154.5c-12.516 6.6562-27.891 5.5312-39.469-2.8594-11.531-8.3906-17.344-22.594-14.906-36.656l56.156-327.24-237.74-231.66c-10.219-9.9844-13.875-24.844-9.4688-38.438s16.172-23.484 30.281-25.547l328.55-47.719 146.9-297.66c12.609-25.594 54.656-25.594 67.219 0l146.9 297.66 328.55 47.719c14.156 2.0625 25.828 11.953 30.281 25.547 4.4062 13.594 0.75 28.453-9.4688 38.438l-237.74 231.71 56.156 327.24c2.3906 14.062-3.375 28.266-14.906 36.656-6.5156 4.7344-14.297 7.1719-22.031 7.1719zm-311.34-238.64c6 0 11.953 1.4062 17.438 4.3125l244.08 128.29-46.594-271.78c-2.1094-12.141 1.9688-24.562 10.781-33.188l197.44-192.47-272.81-39.656c-12.234-1.7812-22.781-9.4688-28.219-20.531l-122.02-247.22-122.02 247.22c-5.4844 11.062-16.031 18.75-28.219 20.531l-272.81 39.656 197.44 192.47c8.8125 8.625 12.844 21.047 10.781 33.188l-46.594 271.78 244.08-128.29c5.4844-2.9062 11.438-4.3125 17.438-4.3125z" fill="#6ccafc"/>
</svg>
