<?xml version="1.0" encoding="UTF-8"?>
<svg width="1200pt" height="1200pt" version="1.1" viewBox="0 0 1200 1200" xmlns="http://www.w3.org/2000/svg">
 <path d="m505.54 379.59v-15.746c0-20.875 8.3125-40.902 23.078-55.668 14.738-14.77 34.766-23.051 55.641-23.051h31.488c20.875 0 40.902 8.2812 55.672 23.051 14.766 14.766 23.047 34.793 23.047 55.668v15.746h157.44c17.383 0 31.488 14.105 31.488 31.488 0 17.379-14.105 31.488-31.488 31.488h-31.488v346.37c0 69.559-56.363 125.95-125.95 125.95h-188.93c-69.559 0-125.95-56.395-125.95-125.95v-346.37h-31.488c-17.383 0-31.488-14.109-31.488-31.488 0-17.383 14.105-31.488 31.488-31.488zm251.9 62.977h-314.88v346.37c0 34.793 28.211 62.977 62.977 62.977h188.93c34.797 0 62.977-28.184 62.977-62.977zm-125.95 94.465v220.41c0 17.383 14.109 31.488 31.488 31.488 17.383 0 31.488-14.105 31.488-31.488v-220.41c0-17.383-14.105-31.488-31.488-31.488-17.379 0-31.488 14.105-31.488 31.488zm-125.95 0v220.41c0 17.383 14.105 31.488 31.488 31.488 17.379 0 31.484-14.105 31.484-31.488v-220.41c0-17.383-14.105-31.488-31.484-31.488-17.383 0-31.488 14.105-31.488 31.488zm125.95-157.44v-15.746c0-4.1875-1.6367-8.1875-4.5977-11.145-2.957-2.9297-6.957-4.5977-11.145-4.5977h-31.488c-4.1562 0-8.1562 1.668-11.117 4.5977-2.957 2.957-4.6289 6.957-4.6289 11.145v15.746z" fill="#d55161" fill-rule="evenodd"/>
</svg>
